<svg xmlns="http://www.w3.org/2000/svg" viewBox="0 0 800 600" fill="none">
  <rect width="800" height="600" fill="#161618"/>
  <g stroke="#3a3a40" stroke-width="1">
    <path d="M0 0h800v600H0z" fill="none"/>
    <g opacity="0.4">
      <path d="M40 40h60M40 40v60M760 40h-60M760 40v60M40 560h60M40 560v-60M760 560h-60M760 560v-60"/>
    </g>
  </g>
  <g transform="translate(400 300)">
    <polygon points="-120,-70 -80,-110 80,-110 120,-70 120,70 80,110 -80,110 -120,70"
             fill="#1e1e21" stroke="#ff4d1c" stroke-width="2"/>
    <rect x="-60" y="-50" width="120" height="60" rx="4" fill="#0c0c0d" stroke="#3a3a40"/>
    <circle cx="-25" cy="-20" r="10" fill="#ff4d1c"/>
    <circle cx="25" cy="-20" r="10" fill="#ff4d1c"/>
    <rect x="-50" y="30" width="100" height="12" fill="#3a3a40"/>
    <rect x="-70" y="55" width="140" height="30" rx="4" fill="#0c0c0d" stroke="#3a3a40"/>
  </g>
  <text x="400" y="470" text-anchor="middle" fill="#6a6a6e"
        font-family="ui-monospace, monospace" font-size="22" letter-spacing="6">// ROBOT IMAGE — TBD</text>
  <text x="400" y="500" text-anchor="middle" fill="#4a4a4e"
        font-family="ui-monospace, monospace" font-size="13" letter-spacing="2">replace assets/robot/ and edit config/workshop.json</text>
</svg>
